<?xml version="1.0" encoding="UTF-8"?>
<svg version="1.1" xmlns="http://www.w3.org/2000/svg" width="145" height="65">
<path d="M0 0 C24.75 0 49.5 0 75 0 C75 21.45 75 42.9 75 65 C50.25 65 25.5 65 0 65 C0 43.55 0 22.1 0 0 Z " fill="#6A6B6B" transform="translate(0,0)"/>
<path d="M0 0 C21.45 0 42.9 0 65 0 C65 4.95 65 9.9 65 15 C59.06 15 53.12 15 47 15 C47 11.37 47 7.74 47 4 C57.54326923 3.62788462 57.54326923 3.62788462 59.85546875 5.51171875 C60.23316406 6.00285156 60.61085937 6.49398438 61 7 C59.68 7 58.36 7 57 7 C59.97574276 7.70266613 59.97574276 7.70266613 63 8 C63.33 5.69 63.66 3.38 64 1 C43.54 1 23.08 1 2 1 C2 1.66 2 2.32 2 3 C9.59 3 17.18 3 25 3 C25 6.96 25 10.92 25 15 C17.41 15 9.82 15 2 15 C2 24.24 2 33.48 2 43 C22.46 43 42.92 43 64 43 C64 35.74 64 28.48 64 21 C64.33 21 64.66 21 65 21 C65 32.22 65 43.44 65 55 C43.55 55 22.1 55 0 55 C0 36.85 0 18.7 0 0 Z " fill="#767D7F" transform="translate(4,5)"/>
<path d="M0 0 C0.80566406 0.00322266 1.61132812 0.00644531 2.44140625 0.00976562 C3.70404297 0.02233398 3.70404297 0.02233398 4.9921875 0.03515625 C5.84167969 0.03966797 6.69117188 0.04417969 7.56640625 0.04882812 C9.66669659 0.06062751 11.7669508 0.07856319 13.8671875 0.09765625 C13.8671875 4.71765625 13.8671875 9.33765625 13.8671875 14.09765625 C15.8471875 14.75765625 17.8271875 15.41765625 19.8671875 16.09765625 C19.8671875 18.07765625 19.8671875 20.05765625 19.8671875 22.09765625 C18.2171875 22.09765625 16.5671875 22.09765625 14.8671875 22.09765625 C14.8671875 21.10765625 14.8671875 20.11765625 14.8671875 19.09765625 C11.2371875 19.09765625 7.6071875 19.09765625 3.8671875 19.09765625 C3.8671875 24.04765625 3.8671875 28.99765625 3.8671875 34.09765625 C7.4971875 34.09765625 11.1271875 34.09765625 14.8671875 34.09765625 C14.8671875 33.43765625 14.8671875 32.77765625 14.8671875 32.09765625 C16.5171875 32.09765625 18.1671875 32.09765625 19.8671875 32.09765625 C19.52449238 34.63360011 19.19988566 36.5997888 17.765625 38.74609375 C14.85718844 40.81670908 12.32055192 40.45742227 8.8046875 40.41015625 C7.55558594 40.40628906 6.30648437 40.40242188 5.01953125 40.3984375 C1.8671875 40.09765625 1.8671875 40.09765625 -0.1328125 38.09765625 C-0.4628125 38.42765625 -0.7928125 38.75765625 -1.1328125 39.09765625 C-2.65209288 39.16945589 -4.17448732 39.18157632 -5.6953125 39.16015625 C-6.52160156 39.15113281 -7.34789063 39.14210937 -8.19921875 39.1328125 C-8.83730469 39.12121094 -9.47539062 39.10960937 -10.1328125 39.09765625 C-10.24753906 38.494375 -10.36226562 37.89109375 -10.48046875 37.26953125 C-11.46790367 33.98202337 -13.60025839 32.3213623 -16.1328125 30.09765625 C-16.7928125 30.09765625 -17.4528125 30.09765625 -18.1328125 30.09765625 C-18.4628125 33.06765625 -18.7928125 36.03765625 -19.1328125 39.09765625 C-21.1128125 39.09765625 -23.0928125 39.09765625 -25.1328125 39.09765625 C-25.1328125 32.16765625 -25.1328125 25.23765625 -25.1328125 18.09765625 C-22.6578125 19.08765625 -22.6578125 19.08765625 -20.1328125 20.09765625 C-20.1328125 21.74765625 -20.1328125 23.39765625 -20.1328125 25.09765625 C-16.1728125 25.09765625 -12.2128125 25.09765625 -8.1328125 25.09765625 C-8.1328125 23.11765625 -8.1328125 21.13765625 -8.1328125 19.09765625 C-8.92945312 19.13246094 -9.72609375 19.16726562 -10.546875 19.203125 C-21.07130108 19.4719972 -21.07130108 19.4719972 -26.1328125 16.09765625 C-26.1328125 15.76765625 -26.1328125 15.43765625 -26.1328125 15.09765625 C-19.8628125 14.76765625 -13.5928125 14.43765625 -7.1328125 14.09765625 C-7.0090625 11.97328125 -6.8853125 9.84890625 -6.7578125 7.66015625 C-6.546875 4.0390625 -6.546875 4.0390625 -6.1328125 1.09765625 C-3.8362755 -0.05061225 -2.54968083 -0.0179555 0 0 Z " fill="#202121" transform="translate(36.1328125,6.90234375)"/>
<path d="M0 0 C20.46 0 40.92 0 62 0 C62 3.3 62 6.6 62 10 C61.01 9.67 60.02 9.34 59 9 C59 8.34 59 7.68 59 7 C57.68 7.33 56.36 7.66 55 8 C55 6.68 55 5.36 55 4 C51.7 3.67 48.4 3.34 45 3 C45 6.96 45 10.92 45 15 C47.64 15 50.28 15 53 15 C53 23.58 53 32.16 53 41 C53.99 41.33 54.98 41.66 56 42 C37.52 42 19.04 42 0 42 C0 32.76 0 23.52 0 14 C7.59 14 15.18 14 23 14 C23 10.04 23 6.08 23 2 C15.41 2 7.82 2 0 2 C0 1.34 0 0.68 0 0 Z M24 2 C23.53045739 5.04581269 23.53045739 5.04581269 23.375 8.5625 C23.25125 10.686875 23.1275 12.81125 23 15 C13.595 15.495 13.595 15.495 4 16 C8.84522629 19.63391972 10.24496646 20.12505355 16.125 20.0625 C17.22070312 20.05347656 18.31640625 20.04445313 19.4453125 20.03515625 C20.28835937 20.02355469 21.13140625 20.01195313 22 20 C22 21.98 22 23.96 22 26 C18.04 26 14.08 26 10 26 C10 24.35 10 22.7 10 21 C7.525 20.01 7.525 20.01 5 19 C5 25.93 5 32.86 5 40 C6.98 40 8.96 40 11 40 C11.33 37.03 11.66 34.06 12 31 C15.58153059 32.79076529 17.46851925 34.01646912 20 37 C20 37.99 20 38.98 20 40 C20.62648438 40 21.25296875 40 21.8984375 40 C24.93229167 40 27.96614583 40 31 40 C31.495 40.495 31.495 40.495 32 41 C34.26500305 41.20511024 36.53904377 41.31412476 38.8125 41.375 C40.05644531 41.42398438 41.30039062 41.47296875 42.58203125 41.5234375 C46.14055553 41.31235761 46.14055553 41.31235761 48.44921875 38.6640625 C50.25154146 36.08164026 50.25154146 36.08164026 50 33 C48.35 33 46.7 33 45 33 C45 33.66 45 34.32 45 35 C41.37 35 37.74 35 34 35 C34 30.05 34 25.1 34 20 C37.63 20 41.26 20 45 20 C45 20.99 45 21.98 45 23 C46.65 23 48.3 23 50 23 C50 21.02 50 19.04 50 17 C48.02 16.34 46.04 15.68 44 15 C44 10.38 44 5.76 44 1 C41.04160645 0.97310551 38.08345573 0.95321259 35.125 0.9375 C33.86236328 0.92493164 33.86236328 0.92493164 32.57421875 0.91210938 C31.76855469 0.90888672 30.96289062 0.90566406 30.1328125 0.90234375 C29.38918457 0.89710693 28.64555664 0.89187012 27.87939453 0.88647461 C25.90867432 0.88213364 25.90867432 0.88213364 24 2 Z " fill="#050404" transform="translate(6,6)"/>
<path d="M0 0 C24.75 0 49.5 0 75 0 C75 21.45 75 42.9 75 65 C50.25 65 25.5 65 0 65 C0 43.55 0 22.1 0 0 Z M1 2 C1 22.13 1 42.26 1 63 C24.43 63 47.86 63 72 63 C72 42.87 72 22.74 72 2 C48.57 2 25.14 2 1 2 Z " fill="#030303" transform="translate(0,0)"/>
<path d="M0 0 C20.46 0 40.92 0 62 0 C62 2.64 62 5.28 62 8 C41.54 8 21.08 8 0 8 C0 5.36 0 2.72 0 0 Z " fill="#292726" transform="translate(6,51)"/>
<path d="M0 0 C2.475 0.99 2.475 0.99 5 2 C5 3.65 5 5.3 5 7 C8.96 7 12.92 7 17 7 C17 5.02 17 3.04 17 1 C17.33 1 17.66 1 18 1 C18 2.98 18 4.96 18 7 C18.62648438 7.12117188 19.25296875 7.24234375 19.8984375 7.3671875 C20.71570313 7.53476562 21.53296875 7.70234375 22.375 7.875 C23.59316406 8.11863281 23.59316406 8.11863281 24.8359375 8.3671875 C27 9 27 9 29 11 C29 12.65 29 14.3 29 16 C32.63 16 36.26 16 40 16 C40 15.34 40 14.68 40 14 C41.65 14 43.3 14 45 14 C44.65730488 16.53594386 44.33269816 18.50213255 42.8984375 20.6484375 C39.99000094 22.71905283 37.45336442 22.35976602 33.9375 22.3125 C32.68839844 22.30863281 31.43929687 22.30476563 30.15234375 22.30078125 C27 22 27 22 25 20 C24.67 20.33 24.34 20.66 24 21 C22.48071962 21.07179964 20.95832518 21.08392007 19.4375 21.0625 C18.61121094 21.05347656 17.78492187 21.04445313 16.93359375 21.03515625 C15.97646484 21.01775391 15.97646484 21.01775391 15 21 C14.88527344 20.39671875 14.77054688 19.7934375 14.65234375 19.171875 C13.66490883 15.88436712 11.53255411 14.22370605 9 12 C8.34 12 7.68 12 7 12 C6.67 14.97 6.34 17.94 6 21 C4.02 21 2.04 21 0 21 C0 14.07 0 7.14 0 0 Z " fill="#121010" transform="translate(11,25)"/>
<path d="M0 0 C14 0 14 0 18 2 C20.11204224 4.71548288 19.99513893 6.06927021 19.75 9.5625 C19 13 19 13 17 16 C16.34 16 15.68 16 15 16 C15.3609375 16.69867188 15.721875 17.39734375 16.09375 18.1171875 C16.5578125 19.02726562 17.021875 19.93734375 17.5 20.875 C17.9640625 21.77992187 18.428125 22.68484375 18.90625 23.6171875 C20 26 20 26 20 28 C18.02 28 16.04 28 14 28 C13.68546875 27.28972656 13.3709375 26.57945313 13.046875 25.84765625 C12.40492187 24.46900391 12.40492187 24.46900391 11.75 23.0625 C11.33234375 22.14597656 10.9146875 21.22945312 10.484375 20.28515625 C9.06626271 17.53387148 9.06626271 17.53387148 5 17 C5 20.63 5 24.26 5 28 C3.35 28 1.7 28 0 28 C0 18.76 0 9.52 0 0 Z M5 4 C5 6.97 5 9.94 5 13 C9.0100934 13.17864631 9.0100934 13.17864631 13 13 C13.66 12.34 14.32 11.68 15 11 C14.83557723 7.93008319 14.83557723 7.93008319 14 5 C11.04335481 3.5216774 8.25770263 3.93967217 5 4 Z " fill="#000000" transform="translate(84,19)"/>
<path d="M0 0 C0.33 0 0.66 0 1 0 C1 7.26 1 14.52 1 22 C21.79 22 42.58 22 64 22 C64 14.74 64 7.48 64 0 C64.33 0 64.66 0 65 0 C65 11.22 65 22.44 65 34 C43.55 34 22.1 34 0 34 C0 22.78 0 11.56 0 0 Z M2 25 C2 27.64 2 30.28 2 33 C22.46 33 42.92 33 64 33 C64 30.36 64 27.72 64 25 C43.54 25 23.08 25 2 25 Z " fill="#A6A8AA" transform="translate(4,26)"/>
<path d="M0 0 C0.33 0 0.66 0 1 0 C1 18.15 1 36.3 1 55 C0.67 55 0.34 55 0 55 C-0.33 51.04 -0.66 47.08 -1 43 C-3.97 42.67 -6.94 42.34 -10 42 C-10 33.42 -10 24.84 -10 16 C-12.64 16 -15.28 16 -18 16 C-18 15.67 -18 15.34 -18 15 C-12.06 15 -6.12 15 0 15 C0 10.05 0 5.1 0 0 Z " fill="#1B1B1B" transform="translate(69,5)"/>
<path d="M0 0 C2.94490403 2.27003019 4.57891165 3.80151778 5.8125 7.3125 C5.874375 7.869375 5.93625 8.42625 6 9 C3.75 9.25 3.75 9.25 1 9 C0.38125 8.34 -0.2375 7.68 -0.875 7 C-2.94953042 4.63400197 -2.94953042 4.63400197 -6.5625 4.6875 C-9.97912402 4.86579727 -9.97912402 4.86579727 -13 6 C-14.61503917 9.67054358 -14.42950784 14.06414634 -14 18 C-12.98957782 20.96509533 -12.98957782 20.96509533 -11 23 C-7.97587921 24.19373189 -6.44175765 24.1232812 -3.3125 23.25 C-0.7143872 22.07878737 -0.7143872 22.07878737 1 19 C3.625 18.8125 3.625 18.8125 6 19 C4.07517084 25.66287016 4.07517084 25.66287016 1 28 C-3.9928473 29.66428243 -8.32107099 29.54888064 -13.25 27.9375 C-16.70952399 25.5001081 -18.64857854 22.96264259 -20 19 C-20.87679589 13.33530743 -20.25667502 8.82886296 -17 4 C-11.57507576 -1.01805492 -7.03543939 -1.81440279 0 0 Z " fill="#000000" transform="translate(127,19)"/>
<path d="M0 0 C21.45 0 42.9 0 65 0 C65 4.95 65 9.9 65 15 C59.06 15 53.12 15 47 15 C47 11.37 47 7.74 47 4 C57.54326923 3.62788462 57.54326923 3.62788462 59.85546875 5.51171875 C60.23316406 6.00285156 60.61085937 6.49398438 61 7 C59.68 7 58.36 7 57 7 C59.97574276 7.70266613 59.97574276 7.70266613 63 8 C63.33 5.69 63.66 3.38 64 1 C43.21 1 22.42 1 1 1 C1 5.62 1 10.24 1 15 C0.67 15 0.34 15 0 15 C0 10.05 0 5.1 0 0 Z " fill="#AFB1B2" transform="translate(4,5)"/>
<path d="M0 0 C2.475 0.99 2.475 0.99 5 2 C5 3.98 5 5.96 5 8 C6.258125 7.938125 7.51625 7.87625 8.8125 7.8125 C12.72231986 7.79173989 12.72231986 7.79173989 15 9.5 C15.33 9.995 15.66 10.49 16 11 C14.68 11.33 13.36 11.66 12 12 C12.9075 12.226875 13.815 12.45375 14.75 12.6875 C18.460716 14.18605839 19.80779243 15.71168864 22 19 C22 19.33 22 19.66 22 20 C19.76171875 20.25 19.76171875 20.25 17 20 C14.83203125 18.25 14.83203125 18.25 12.8125 16 C11.57429265 14.63631466 10.30966596 13.29521049 9 12 C8.34 12 7.68 12 7 12 C6.67 14.97 6.34 17.94 6 21 C4.02 21 2.04 21 0 21 C0 14.07 0 7.14 0 0 Z " fill="#B7BABC" transform="translate(11,25)"/>
<path d="M0 0 C16.83 0 33.66 0 51 0 C50.67 1.32 50.34 2.64 50 4 C42.66666667 4 35.33333333 4 28 4 C26.57291632 4.01167679 25.14583305 4.02340275 23.71875 4.03515625 C21.97916778 4.0444802 20.23958437 4.05358559 18.5 4.0625 C17.61957031 4.07087891 16.73914063 4.07925781 15.83203125 4.08789062 C14.99027344 4.09111328 14.14851563 4.09433594 13.28125 4.09765625 C12.12206055 4.10551147 12.12206055 4.10551147 10.93945312 4.11352539 C9 4 9 4 7 3 C6.67 3.66 6.34 4.32 6 5 C4.35 5 2.7 5 1 5 C0.67 3.35 0.34 1.7 0 0 Z " fill="#515150" transform="translate(7,52)"/>
<path d="M0 0 C2.42054679 0.80684893 4.80101817 1.66267898 7.1875 2.5625 C7.90292969 2.83191406 8.61835938 3.10132813 9.35546875 3.37890625 C9.89816406 3.58386719 10.44085938 3.78882813 11 4 C11 4.99 11 5.98 11 7 C13.97 7 16.94 7 20 7 C20.33 6.34 20.66 5.68 21 5 C21 6.98 21 8.96 21 11 C13.74 11 6.48 11 -1 11 C-1 2 -1 2 0 0 Z " fill="#656666" transform="translate(7,9)"/>
<path d="M0 0 C20.46 0 40.92 0 62 0 C62 0.33 62 0.66 62 1 C42.2 1.33 22.4 1.66 2 2 C2 3.32 2 4.64 2 6 C2.72218719 5.99555878 3.44437439 5.99111755 4.18844604 5.98654175 C10.98666022 5.94650625 17.78485684 5.91603662 24.58315849 5.89637566 C28.07843927 5.88592802 31.57362283 5.87175117 35.06884766 5.84912109 C39.08497056 5.82328047 43.10099097 5.81353534 47.1171875 5.8046875 C49.00472244 5.78920364 49.00472244 5.78920364 50.9303894 5.77340698 C52.09144196 5.77325592 53.25249451 5.77310486 54.44873047 5.77294922 C55.47465302 5.768508 56.50057556 5.76406677 57.55758667 5.75949097 C60 6 60 6 62 8 C41.54 8 21.08 8 0 8 C0 5.36 0 2.72 0 0 Z " fill="#060606" transform="translate(6,51)"/>
<path d="M0 0 C1.65 0 3.3 0 5 0 C5 9.24 5 18.48 5 28 C3.35 28 1.7 28 0 28 C0 18.76 0 9.52 0 0 Z " fill="#000000" transform="translate(137,19)"/>
<path d="M0 0 C1.65 0 3.3 0 5 0 C5 1.65 5 3.3 5 5 C8.63 5 12.26 5 16 5 C16 4.34 16 3.68 16 3 C17.65 3 19.3 3 21 3 C20.125 7.875 20.125 7.875 19 9 C16.35877716 9.18021767 13.76853102 9.27801916 11.125 9.3125 C10.39152344 9.34150391 9.65804687 9.37050781 8.90234375 9.40039062 C3.50163716 9.46433342 3.50163716 9.46433342 1.00390625 7.15234375 C-0.18402938 4.60544673 -0.23158172 2.77898068 0 0 Z " fill="#BDBFC0" transform="translate(35,36)"/>
<path d="M0 0 C3.08283443 -0.14554346 6.16478439 -0.23413821 9.25 -0.3125 C10.12269531 -0.35439453 10.99539062 -0.39628906 11.89453125 -0.43945312 C18.3685241 -0.56300261 18.3685241 -0.56300261 21.59375 2.3125 C23.23517124 5.44943838 23.3249222 7.50708639 23 11 C21.68 10.67 20.36 10.34 19 10 C19 8.02 19 6.04 19 4 C18.13117187 4.03480469 17.26234375 4.06960937 16.3671875 4.10546875 C4.92091388 4.37434095 4.92091388 4.37434095 0 1 C0 0.67 0 0.34 0 0 Z " fill="#EDEAE8" transform="translate(10,22)"/>
<path d="M0 0 C6.6 0 13.2 0 20 0 C20 0.33 20 0.66 20 1 C36.335 1.495 36.335 1.495 53 2 C53 2.33 53 2.66 53 3 C35.51 3 18.02 3 0 3 C0 2.01 0 1.02 0 0 Z " fill="#878A8C" transform="translate(15,48)"/>
<path d="M0 0 C1.77007714 -0.08114106 3.54122098 -0.13925505 5.3125 -0.1875 C6.29863281 -0.22230469 7.28476562 -0.25710938 8.30078125 -0.29296875 C11 0 11 0 12.85546875 1.51171875 C13.23316406 2.00285156 13.61085938 2.49398438 14 3 C12.68 3 11.36 3 10 3 C12.97574276 3.70266613 12.97574276 3.70266613 16 4 C16.042721 5.66611905 16.04063832 7.33382885 16 9 C15 10 15 10 12.625 10.3125 C10 10 10 10 8.1875 8.125 C7 6 7 6 7 4 C4.69 4 2.38 4 0 4 C0 2.68 0 1.36 0 0 Z " fill="#6D7274" transform="translate(51,9)"/>
<path d="M0 0 C0.33 0.66 0.66 1.32 1 2 C8.59 2 16.18 2 24 2 C24 2.33 24 2.66 24 3 C19.05 3.33 14.1 3.66 9 4 C9.33 4.66 9.66 5.32 10 6 C4.25 5.25 4.25 5.25 2 3 C1.67 15.87 1.34 28.74 1 42 C0.67 42 0.34 42 0 42 C-1.40027356 11.4607005 -1.40027356 11.4607005 0 0 Z " fill="#474849" transform="translate(5,6)"/>
<path d="M0 0 C0.33 0 0.66 0 1 0 C1 3.3 1 6.6 1 10 C2.98 10 4.96 10 7 10 C6.67 13.63 6.34 17.26 6 21 C4.02 21 2.04 21 0 21 C0 14.07 0 7.14 0 0 Z " fill="#211E1E" transform="translate(11,25)"/>
<path d="M0 0 C3.3125 -0.3125 3.3125 -0.3125 7 0 C8.625 2.5 8.625 2.5 10 5 C12.62694422 5.41780879 12.62694422 5.41780879 15 5 C15.66 3.35 16.32 1.7 17 0 C17.33 0 17.66 0 18 0 C18 2.31 18 4.62 18 7 C12.06 7 6.12 7 0 7 C0 4.69 0 2.38 0 0 Z " fill="#D9DADB" transform="translate(51,13)"/>
<path d="M0 0 C0.66 0 1.32 0 2 0 C2 0.99 2 1.98 2 3 C4.97 3 7.94 3 11 3 C11.33 2.34 11.66 1.68 12 1 C12 2.98 12 4.96 12 7 C5.07 7 -1.86 7 -9 7 C-8.67 6.01 -8.34 5.02 -8 4 C-7.67 4.33 -7.34 4.66 -7 5 C-5.33382885 5.04063832 -3.66611905 5.042721 -2 5 C-1.34 3.35 -0.68 1.7 0 0 Z " fill="#CDD1D4" transform="translate(16,13)"/>
<path d="M0 0 C0.99 0 1.98 0 3 0 C3 0.99 3 1.98 3 3 C3.99 3 4.98 3 6 3 C6.33 2.34 6.66 1.68 7 1 C7.66 1.33 8.32 1.66 9 2 C9.66 1.34 10.32 0.68 11 0 C11 0.99 11 1.98 11 3 C12.65 3 14.3 3 16 3 C16.33 2.34 16.66 1.68 17 1 C17.66 1 18.32 1 19 1 C19 1.66 19 2.32 19 3 C21.31 2.01 23.62 1.02 26 0 C26 0.99 26 1.98 26 3 C27.32 3.33 28.64 3.66 30 4 C19.98707052 5.09945892 10.05598201 5.10055982 0 5 C0 3.35 0 1.7 0 0 Z " fill="#201E1E" transform="translate(13,53)"/>
<path d="M0 0 C3.4375 1 3.4375 1 6 2 C6 2.33 6 2.66 6 3 C2.37 3 -1.26 3 -5 3 C-5 5.97 -5 8.94 -5 12 C-6.65 11.67 -8.3 11.34 -10 11 C-10.20145347 7.50813979 -10.34907805 4.80082611 -8.9375 1.5625 C-5.96223232 -0.83690942 -3.72065661 -0.37837186 0 0 Z " fill="#C1C4C5" transform="translate(45,23)"/>
<path d="M0 0 C7.59 0 15.18 0 23 0 C20 2 20 2 17 2 C16.34 2.66 15.68 3.32 15 4 C9.66666667 4.33333333 9.66666667 4.33333333 7 3 C6.67 3.66 6.34 4.32 6 5 C4.35 5 2.7 5 1 5 C0.67 3.35 0.34 1.7 0 0 Z " fill="#676766" transform="translate(7,52)"/>
<path d="M0 0 C2.64590014 -0.02684679 5.29153096 -0.04676357 7.9375 -0.0625 C8.69224609 -0.07087891 9.44699219 -0.07925781 10.22460938 -0.08789062 C12.14994313 -0.09652441 14.07535581 -0.05224333 16 0 C17 1 17 1 17.0625 4.0625 C17.041875 5.031875 17.02125 6.00125 17 7 C15.35 7 13.7 7 12 7 C12 5.68 12 4.36 12 3 C10.9790625 3.061875 10.9790625 3.061875 9.9375 3.125 C6.40075832 2.97450035 3.36676967 2.05624147 0 1 C0 0.67 0 0.34 0 0 Z " fill="#727779" transform="translate(39,22)"/>
<path d="M0 0 C2.625 0.375 2.625 0.375 5 1 C5.6875 3.3125 5.6875 3.3125 6 6 C4.5625 7.8125 4.5625 7.8125 3 9 C0.525 8.01 0.525 8.01 -2 7 C-2.125 4.625 -2.125 4.625 -2 2 C-1.34 1.34 -0.68 0.68 0 0 Z " fill="#969697" transform="translate(38,10)"/>
<path d="M0 0 C1.2065625 0.0309375 1.2065625 0.0309375 2.4375 0.0625 C2.4375 3.0325 2.4375 6.0025 2.4375 9.0625 C0.4575 9.0625 -1.5225 9.0625 -3.5625 9.0625 C-3.66015625 2.91015625 -3.66015625 2.91015625 -3.5625 1.0625 C-2.5625 0.0625 -2.5625 0.0625 0 0 Z " fill="#3F4041" transform="translate(62.5625,36.9375)"/>
<path d="M0 0 C1.9375 0.375 1.9375 0.375 4 1 C4.33 1.66 4.66 2.32 5 3 C6.3921875 3.4021875 6.3921875 3.4021875 7.8125 3.8125 C11.54110586 5.20158846 12.822411 6.73361649 15 10 C15 10.33 15 10.66 15 11 C11.76089471 11.356132 10.43677841 11.34548779 7.83203125 9.28515625 C7.16558594 8.55167969 6.49914062 7.81820312 5.8125 7.0625 C3.21289233 4.12442614 3.21289233 4.12442614 0 2 C0 1.34 0 0.68 0 0 Z " fill="#B4B8BB" transform="translate(18,34)"/>
<path d="M0 0 C3.3 0 6.6 0 10 0 C10 1.98 10 3.96 10 6 C6.53058454 5.54177532 3.32604951 5.10868317 0 4 C0 2.68 0 1.36 0 0 Z " fill="#474949" transform="translate(58,52)"/>
<path d="M0 0 C0 1.65 0 3.3 0 5 C-3.63 5 -7.26 5 -11 5 C-11 3.68 -11 2.36 -11 1 C-7.26513121 0.4254048 -3.78706732 0 0 0 Z " fill="#010101" transform="translate(28,27)"/>
<path d="M0 0 C-0.99 0.495 -0.99 0.495 -2 1 C-2.33 1.99 -2.66 2.98 -3 4 C-8 4 -13 4 -18 4 C-18 3.34 -18 2.68 -18 2 C-12.12116651 -0.61281488 -6.29268272 -0.18328202 0 0 Z " fill="#6F6F6E" transform="translate(42,52)"/>
<path d="M0 0 C5.61 0 11.22 0 17 0 C17 2.64 17 5.28 17 8 C16.01 7.67 15.02 7.34 14 7 C14 6.34 14 5.68 14 5 C12.68 5.33 11.36 5.66 10 6 C10 4.68 10 3.36 10 2 C6.7 1.67 3.4 1.34 0 1 C0 0.67 0 0.34 0 0 Z " fill="#3C4142" transform="translate(51,8)"/>
<path d="M0 0 C3.96 0 7.92 0 12 0 C12 0.33 12 0.66 12 1 C14.97 1.495 14.97 1.495 18 2 C18 2.33 18 2.66 18 3 C12.06 3 6.12 3 0 3 C0 2.01 0 1.02 0 0 Z " fill="#5C6264" transform="translate(15,48)"/>
<path d="M0 0 C0.33 0 0.66 0 1 0 C1 1.98 1 3.96 1 6 C2.32 6.66 3.64 7.32 5 8 C4.34 8.66 3.68 9.32 3 10 C-2.56818182 9.43181818 -2.56818182 9.43181818 -4 8 C-5.34747084 7.76924918 -6.70377565 7.58846937 -8.0625 7.4375 C-9.361875 7.293125 -10.66125 7.14875 -12 7 C-12 6.67 -12 6.34 -12 6 C-8.04 6 -4.08 6 0 6 C0 4.02 0 2.04 0 0 Z " fill="#696C6D" transform="translate(28,26)"/>
<path d="M0 0 C2.97 0 5.94 0 9 0 C9 1.32 9 2.64 9 4 C6.03 4 3.06 4 0 4 C0 2.68 0 1.36 0 0 Z " fill="#373838" transform="translate(18,12)"/>
<path d="M0 0 C0.66 0 1.32 0 2 0 C2 0.99 2 1.98 2 3 C4.97 3 7.94 3 11 3 C11.33 2.34 11.66 1.68 12 1 C12 2.32 12 3.64 12 5 C7.71 5 3.42 5 -1 5 C-0.67 3.35 -0.34 1.7 0 0 Z " fill="#D6D7D7" transform="translate(16,13)"/>
<path d="M0 0 C0.78375 0.04125 1.5675 0.0825 2.375 0.125 C2.417721 1.79111905 2.41563832 3.45882885 2.375 5.125 C1.375 6.125 1.375 6.125 -1.1875 6.1875 C-2.3940625 6.1565625 -2.3940625 6.1565625 -3.625 6.125 C-4.25 4.25 -4.25 4.25 -4.625 2.125 C-2.625 0.125 -2.625 0.125 0 0 Z " fill="#888989" transform="translate(64.625,12.875)"/>
<path d="M0 0 C7.59 0 15.18 0 23 0 C23 0.33 23 0.66 23 1 C18.05 1.33 13.1 1.66 8 2 C8.33 2.66 8.66 3.32 9 4 C4.53159589 3.50351065 3.31012244 3.31012244 0 0 Z " fill="#222526" transform="translate(6,8)"/>
<path d="M0 0 C1.32 0 2.64 0 4 0 C4 2.64 4 5.28 4 8 C2.68 8 1.36 8 0 8 C0 5.36 0 2.72 0 0 Z " fill="#C5C9CC" transform="translate(12,37)"/>
<path d="M0 0 C2.97 0 5.94 0 9 0 C7.8125 2.5 7.8125 2.5 6 5 C3.3125 5.3125 3.3125 5.3125 1 5 C0.67 3.35 0.34 1.7 0 0 Z " fill="#5C5F60" transform="translate(7,52)"/>
<path d="M0 0 C6.27 0 12.54 0 19 0 C19 0.33 19 0.66 19 1 C15.7 1.33 12.4 1.66 9 2 C9 2.66 9 3.32 9 4 C4.80884715 3.41789544 3.62457917 2.71843438 0 0 Z " fill="#A9A8A6" transform="translate(10,22)"/>
<path d="M0 0 C3 1 3 1 6 3 C4.68 3 3.36 3 2 3 C2.33 4.65 2.66 6.3 3 8 C2.01 8 1.02 8 0 8 C-0.33 8.99 -0.66 9.98 -1 11 C-1.0270043 9.54176788 -1.04639787 8.08339325 -1.0625 6.625 C-1.07410156 5.81289062 -1.08570313 5.00078125 -1.09765625 4.1640625 C-1 2 -1 2 0 0 Z " fill="#818384" transform="translate(7,9)"/>
<path d="M0 0 C1.65 0 3.3 0 5 0 C4.67 1.65 4.34 3.3 4 5 C3.01 4.67 2.02 4.34 1 4 C-1.05893621 3.77674186 -3.12233653 3.59294241 -5.1875 3.4375 C-6.81751953 3.31181641 -6.81751953 3.31181641 -8.48046875 3.18359375 C-9.31191406 3.12300781 -10.14335938 3.06242187 -11 3 C-11 2.67 -11 2.34 -11 2 C-7.37 2 -3.74 2 0 2 C0 1.34 0 0.68 0 0 Z " fill="#858889" transform="translate(51,39)"/>
<path d="M0 0 C1.65 0 3.3 0 5 0 C5 1.98 5 3.96 5 6 C3.35 6 1.7 6 0 6 C0 4.02 0 2.04 0 0 Z " fill="#6B6B6C" transform="translate(59,21)"/>
<path d="M0 0 C1.95825873 -0.02694851 3.91662226 -0.04637218 5.875 -0.0625 C6.96554688 -0.07410156 8.05609375 -0.08570313 9.1796875 -0.09765625 C12 0 12 0 14 1 C14 1.66 14 2.32 14 3 C12.41753293 3.08153933 10.83383727 3.13943557 9.25 3.1875 C8.36828125 3.22230469 7.4865625 3.25710937 6.578125 3.29296875 C3.55328417 2.94923684 2.24416398 1.99772541 0 0 Z " fill="#E5E6E6" transform="translate(40,42)"/>
<path d="M0 0 C0.33 0.66 0.66 1.32 1 2 C1.66 2 2.32 2 3 2 C3.66 1.34 4.32 0.68 5 0 C5 2.64 5 5.28 5 8 C3.35 7.67 1.7 7.34 0 7 C0 4.69 0 2.38 0 0 Z " fill="#B0B1B2" transform="translate(35,27)"/>
<path d="M0 0 C1.32 0 2.64 0 4 0 C4 2.31 4 4.62 4 7 C2.68 7 1.36 7 0 7 C0 4.69 0 2.38 0 0 Z " fill="#C0C5C7" transform="translate(60,28)"/>
<path d="M0 0 C0 0.66 0 1.32 0 2 C-3.96 2 -7.92 2 -12 2 C-12 1.34 -12 0.68 -12 0 C-7.6835078 -0.76173392 -4.25566547 -1.16063604 0 0 Z " fill="#919291" transform="translate(53,54)"/>
<path d="M0 0 C0.66 0 1.32 0 2 0 C3.35439668 2.70879335 3.06501451 5.00933268 3 8 C1.68 7.67 0.36 7.34 -1 7 C-0.67 4.69 -0.34 2.38 0 0 Z " fill="#D3D1CF" transform="translate(30,25)"/>
<path d="M0 0 C1.32 0.33 2.64 0.66 4 1 C4 2.65 4 4.3 4 6 C2.68 6 1.36 6 0 6 C0 4.02 0 2.04 0 0 Z " fill="#CFD2D4" transform="translate(60,39)"/>
<path d="M0 0 C2.4375 0.6875 2.4375 0.6875 5 2 C5.8125 4.625 5.8125 4.625 6 7 C5.01 6.67 4.02 6.34 3 6 C3 5.34 3 4.68 3 4 C1.68 4.33 0.36 4.66 -1 5 C-0.67 3.35 -0.34 1.7 0 0 Z " fill="#28292A" transform="translate(62,9)"/>
<path d="M0 0 C5.95703125 -0.29296875 5.95703125 -0.29296875 8 0 C8.99 0.99 9.98 1.98 11 3 C7.37 2.67 3.74 2.34 0 2 C0 1.34 0 0.68 0 0 Z " fill="#E1E2E3" transform="translate(16,33)"/>
<path d="M0 0 C2.97 0 5.94 0 9 0 C9.33 0.99 9.66 1.98 10 3 C6.66666667 2.33333333 3.33333333 1.66666667 0 1 C0 0.67 0 0.34 0 0 Z " fill="#495153" transform="translate(46,22)"/>
<path d="M0 0 C0.33 0 0.66 0 1 0 C1 2.31 1 4.62 1 7 C-1.64 7 -4.28 7 -7 7 C-7 6.67 -7 6.34 -7 6 C-6.21625 5.938125 -5.4325 5.87625 -4.625 5.8125 C-3.75875 5.544375 -2.8925 5.27625 -2 5 C-0.62533375 2.52363988 -0.62533375 2.52363988 0 0 Z " fill="#E5E6E7" transform="translate(68,13)"/>
<path d="M0 0 C2.31 0 4.62 0 7 0 C7.33 0.99 7.66 1.98 8 3 C5.36 2.67 2.72 2.34 0 2 C0 1.34 0 0.68 0 0 Z " fill="#BEC0C1" transform="translate(51,13)"/>
</svg>
